<?xml version="1.0" encoding="UTF-8" standalone="no"?>
<svg
   width="100"
   height="100"
   version="1.1"
   id="svg1"
   sodipodi:docname="default.svg"
   inkscape:version="1.3.2 (091e20ef0f, 2023-11-25)"
   xmlns:inkscape="http://www.inkscape.org/namespaces/inkscape"
   xmlns:sodipodi="http://sodipodi.sourceforge.net/DTD/sodipodi-0.dtd"
   xmlns="http://www.w3.org/2000/svg"
   xmlns:svg="http://www.w3.org/2000/svg">
  <defs
     id="defs1">
    <inkscape:path-effect
       effect="fillet_chamfer"
       id="path-effect1"
       is_visible="true"
       lpeversion="1"
       nodesatellites_param="F,0,0,1,0,10,0,1 @ F,0,0,1,0,10,0,1 @ F,0,0,1,0,10,0,1 @ F,0,0,1,0,10,0,1"
       radius="10"
       unit="px"
       method="auto"
       mode="F"
       chamfer_steps="1"
       flexible="false"
       use_knot_distance="true"
       apply_no_radius="true"
       apply_with_radius="true"
       only_selected="false"
       hide_knots="false" />
    <inkscape:path-effect
       effect="fillet_chamfer"
       id="path-effect1-6"
       is_visible="true"
       lpeversion="1"
       nodesatellites_param="F,0,0,1,0,8,0,1 @ F,0,0,1,0,8,0,1 @ F,0,0,1,0,8,0,1 @ F,0,0,1,0,8,0,1"
       radius="8"
       unit="px"
       method="auto"
       mode="F"
       chamfer_steps="1"
       flexible="false"
       use_knot_distance="true"
       apply_no_radius="true"
       apply_with_radius="true"
       only_selected="false"
       hide_knots="false" />
  </defs>
  <sodipodi:namedview
     id="namedview1"
     pagecolor="#ffffff"
     bordercolor="#000000"
     borderopacity="0.25"
     inkscape:showpageshadow="2"
     inkscape:pageopacity="0.0"
     inkscape:pagecheckerboard="0"
     inkscape:deskcolor="#d1d1d1"
     inkscape:zoom="4.1"
     inkscape:cx="50"
     inkscape:cy="50.121951"
     inkscape:window-width="1366"
     inkscape:window-height="749"
     inkscape:window-x="0"
     inkscape:window-y="19"
     inkscape:window-maximized="1"
     inkscape:current-layer="svg1" />
  <path
     x="2"
     y="2"
     width="96"
     height="96"
     style="fill:none;fill-opacity:0;stroke:#000000;stroke-width:3;stroke-linejoin:round;stroke-dasharray:none"
     id="rect1"
     inkscape:path-effect="#path-effect1"
     sodipodi:type="rect"
     d="M 12,2 H 88 A 10,10 45 0 1 98,12 V 88 A 10,10 135 0 1 88,98 H 12 A 10,10 45 0 1 2,88 V 12 A 10,10 135 0 1 12,2 Z" />
  <path
     x="2"
     y="2"
     width="96"
     height="96"
     style="fill:none;stroke:#000000;stroke-width:2.31954;stroke-linejoin:round;stroke-dasharray:none"
     id="rect1-0"
     inkscape:path-effect="#path-effect1-6"
     sodipodi:type="rect"
     d="m 10,2 h 80 a 8,8 45 0 1 8,8 v 80 a 8,8 135 0 1 -8,8 H 10 A 8,8 45 0 1 2,90 V 10 a 8,8 135 0 1 8,-8 z"
     transform="matrix(0.91539094,0,0,0.91537467,4.2308611,4.2308748)" />
</svg>
