<?xml version="1.0" encoding="UTF-8" standalone="no"?>
<!-- Created with Inkscape (http://www.inkscape.org/) -->

<svg
   width="60in"
   height="20in"
   viewBox="0 0 1524 508"
   version="1.1"
   id="svg1"
   inkscape:version="1.3.2 (091e20ef0f, 2023-11-25)"
   sodipodi:docname="dresser.svg"
   xmlns:inkscape="http://www.inkscape.org/namespaces/inkscape"
   xmlns:sodipodi="http://sodipodi.sourceforge.net/DTD/sodipodi-0.dtd"
   xmlns="http://www.w3.org/2000/svg"
   xmlns:svg="http://www.w3.org/2000/svg">
  <style>
	.selected {
		stroke: blue;
	}
  </style>
  <sodipodi:namedview
     id="namedview1"
     pagecolor="#ffffff"
     bordercolor="#000000"
     borderopacity="0.25"
     inkscape:showpageshadow="2"
     inkscape:pageopacity="0.0"
     inkscape:pagecheckerboard="0"
     inkscape:deskcolor="#d1d1d1"
     inkscape:document-units="mm"
     inkscape:zoom="0.18173428"
     inkscape:cx="2872.3255"
     inkscape:cy="1554.4673"
     inkscape:window-width="1366"
     inkscape:window-height="749"
     inkscape:window-x="0"
     inkscape:window-y="19"
     inkscape:window-maximized="1"
     inkscape:current-layer="layer1" />
  <defs
     id="defs1">
    <inkscape:path-effect
       effect="roughen"
       id="path-effect5"
       is_visible="true"
       lpeversion="1.2"
       global_randomize="0.6;1"
       displace_x="10;1"
       displace_y="10;1"
       method="size"
       max_segment_size="0.339706"
       segments="2"
       handles="along"
       shift_nodes="true"
       fixed_displacement="false"
       spray_tool_friendly="false" />
    <inkscape:path-effect
       effect="roughen"
       id="path-effect4"
       is_visible="true"
       lpeversion="1.2"
       global_randomize="0.1;1"
       displace_x="10;1"
       displace_y="10;1"
       method="size"
       max_segment_size="9.34363"
       segments="2"
       handles="along"
       shift_nodes="true"
       fixed_displacement="false"
       spray_tool_friendly="false" />
    <inkscape:path-effect
       effect="fillet_chamfer"
       id="path-effect3"
       is_visible="true"
       lpeversion="1"
       nodesatellites_param="F,0,0,1,0,6.35,0,1 @ F,0,0,1,0,6.35,0,1 @ F,0,0,1,0,6.35,0,1 @ F,0,0,1,0,6.35,0,1"
       radius="0.25"
       unit="in"
       method="auto"
       mode="F"
       chamfer_steps="1"
       flexible="false"
       use_knot_distance="true"
       apply_no_radius="true"
       apply_with_radius="true"
       only_selected="false"
       hide_knots="false" />
    <inkscape:path-effect
       effect="skeletal"
       id="path-effect2"
       is_visible="true"
       lpeversion="1"
       pattern="M 0,4.9921384 C 0,2.236478 2.236478,0 4.9921384,0 c 2.7556603,0 4.9921383,2.236478 4.9921383,4.9921384 0,2.7556603 -2.236478,4.9921383 -4.9921383,4.9921383 C 2.236478,9.9842767 0,7.7477987 0,4.9921384 Z"
       copytype="single_stretched"
       prop_scale="-1.7434877"
       scale_y_rel="false"
       spacing="0"
       normal_offset="0"
       tang_offset="0"
       prop_units="false"
       vertical_pattern="false"
       hide_knot="false"
       fuse_tolerance="0" />
    <inkscape:path-effect
       effect="skeletal"
       id="path-effect1"
       is_visible="true"
       lpeversion="1"
       pattern="M 0,4.9921384 C 0,2.236478 2.236478,0 4.9921384,0 c 2.7556603,0 4.9921383,2.236478 4.9921383,4.9921384 0,2.7556603 -2.236478,4.9921383 -4.9921383,4.9921383 C 2.236478,9.9842767 0,7.7477987 0,4.9921384 Z"
       copytype="single_stretched"
       prop_scale="0.1"
       scale_y_rel="false"
       spacing="0"
       normal_offset="0"
       tang_offset="0"
       prop_units="false"
       vertical_pattern="false"
       hide_knot="false"
       fuse_tolerance="0" />
  </defs>
  <g
     inkscape:label="Layer 1"
     inkscape:groupmode="layer"
     id="layer1">
    <path
       style="display:inline;fill:#000004;fill-opacity:0;stroke:#000000;stroke-width:25.4;stroke-linecap:round;stroke-linejoin:round;stroke-dasharray:none;stroke-opacity:1"
       d="m 18.942686,12.699657 8.899388,-0.138931 10.08766,0.03547 8.597817,-0.06624 9.331473,-0.04512 9.433124,-0.0026 9.483833,0.02812 8.977905,-0.0915 9.797675,0.03795 9.024239,0.0017 9.4738,0.02838 9.1813,0.0035 9.32378,0.002 9.07898,-0.181769 9.35409,-0.106491 9.76133,0.0074 9.06587,0.0078 9.32456,0.008 9.34416,0.01311 10.12318,0.01705 8.35913,-0.208629 9.49012,0.01503 9.27829,0.01271 9.79653,0.06865 8.79872,-0.019 9.32784,-0.009 9.25663,-0.04023 9.27564,-0.0412 9.37941,-0.104688 9.30411,-0.01509 9.35721,-7.6e-4 9.23294,-0.147969 9.9707,0.0606 8.89614,0.03972 9.42908,0.06041 9.60277,0.02301 8.60111,-0.09379 9.69493,0.03503 8.9681,-0.214954 9.53959,0.02461 9.64526,0.01146 8.7949,-0.04446 9.71766,0.06479 8.959,-0.02713 9.3791,-0.0038 9.13304,-0.180749 9.39577,-0.07062 9.28206,-0.145101 9.42831,-0.105343 9.34853,-0.214766 9.34417,-0.09045 9.35155,0.02146 10.08951,0.06599 8.84848,0.03277 8.90797,-0.259431 9.38447,0.0081 9.51748,0.06144 9.11182,0.0076 9.75405,0.0554 8.91593,0.01754 9.74553,0.04815 8.86538,0.0093 9.18995,-0.05712 9.70161,0.05261 9.15037,0.0364 9.39641,0.05428 9.41282,0.07244 9.59153,0.06996 8.62755,-0.134379 9.54582,0.03243 9.12632,-0.06026 10.00494,0.04399 9.30301,0.08346 8.78085,-0.07989 9.26126,-0.0042 9.69117,0.0275 8.96476,-0.0039 9.33219,-0.194026 9.37401,0.0288 9.46443,0.05135 9.07455,-0.04803 9.2826,-0.03314 9.96768,0.09076 8.6981,-0.02081 9.29104,-0.01537 9.40776,0.02039 9.3491,0.02264 9.46269,0.03047 8.94829,-0.120372 9.50545,-0.05815 9.90028,0.08683 8.71966,-0.175741 9.3372,-0.0022 9.32467,0.02697 9.87775,0.09829 8.67883,-0.0066 9.80998,0.09553 8.85026,0.0057 9.29239,-0.214336 9.20985,-0.05989 10.13718,0.05422 9.07952,0.07626 9.02155,0.05178 9.40544,0.05221 9.2379,0.05685 9.2364,0.03538 9.80157,0.06755 9.2951,0.06871 9.3783,0.0291 9.5341,0.0587 8.7573,0.07215 9.2383,0.05438 9.1569,0.01208 9.3006,-0.02214 9.6088,0.08082 9.1506,0.04132 9.1015,-0.109065 9.449,0.01469 9.3297,0.02514 9.2092,-0.05079 9.4342,0.03135 9.3823,0.04586 9.1643,-6.81e-4 9.5777,0.07149 9.3256,0.07449 9.4553,0.0919 8.9958,0.02497 10.0426,0.05535 8.7071,0.05027 9.1359,-0.0017 9.3705,0.02027 9.3321,0.0247 9.3924,0.04652 9.2218,0.01366 9.3178,-0.01028 9.2249,-0.07729 9.4636,0.03595 9.2634,0.023 9.2644,-0.03032 9.347,0.01813 9.9252,0.06158 8.7351,-0.0031 9.6403,0.100448 8.8367,-0.09037 10.1329,0.110513 8.7126,0.03693 9.2939,0.03598 9.3579,0.03885 9.2739,0.03375 9.4159,0.0624 9.2385,0.03824 9.2835,-0.252756 9.3456,0.06741 9.1527,-0.0059 9.5659,0.100392 9.5149,0.11807 8.9689,0.04012 9.3264,0.01236 9.3185,-0.0076 9.249,0.0836 9.761,0.204338 c 1.591,-0.01156 3.1403,0.698401 4.2488,1.844635 1.1085,1.146235 1.9317,2.767002 1.9317,4.520506 l 0.6142,9.322309 -0.1416,9.171258 -0.027,9.321881 0.1269,9.292548 0.2264,9.291618 0.6778,9.263996 0.4335,9.323935 0.1659,9.259327 0.3645,9.298221 -0.2047,9.16118 0.3682,9.34257 -0.2576,9.13051 -0.2003,9.34484 0.054,9.33215 0.4109,9.28754 -0.118,9.24596 -0.018,9.31299 -0.263,9.0435 -0.083,9.48265 0.051,9.30943 0.04,9.27301 -0.2093,9.19379 -0.011,9.34008 -0.094,9.25325 0.1183,9.31814 0.2652,9.23826 -0.2617,9.17478 -0.039,9.38659 0.1082,9.31091 0.055,9.23587 0.2826,9.33659 -0.1799,9.17849 -0.1651,9.22908 -0.1542,9.21839 -0.1737,9.39473 0.065,9.30778 -0.052,9.27009 -0.185,9.06326 -0.026,9.48795 -0.1753,9.24834 -0.3731,9.1338 -0.1916,9.32146 -0.1284,9.36014 -0.1665,9.26073 -0.2407,9.24231 -0.094,9.31058 -0.078,9.27448 -0.099,9.27185 -0.1048,9.27758 c -0.035,1.74965 -0.4214,3.4002 -1.5792,4.54836 -1.1578,1.14816 -3.1024,1.71121 -4.8559,1.71121 l -9.3334,-0.006 -9.2407,0.0125 -9.4981,-0.053 -9.1851,-0.001 -9.259,0.0129 -9.452,-0.0679 -9.1689,0.0103 -9.3632,0.002 -9.4139,-0.041 -9.2205,-8.2e-4 -9.2448,0.0191 -9.3794,-4.7e-4 -9.152,0.006 -8.8969,0.0163 -9.443,0.0228 -9.3651,0.0686 -9.6577,0.0109 -9.3789,-0.0866 -8.7158,0.0612 -9.9752,-0.18727 -8.9381,0.0609 -8.9796,0.0101 -9.8449,0.023 -9.2276,0.01 -9.4809,0.003 -9.3314,-0.1368 -8.3557,0.0105 -10.3864,-0.0616 -8.8915,0.0567 -9.6582,-0.019 -9.2711,-0.001 -9.1931,0.0233 -9.3644,0.008 -8.669,0.006 -10.1356,-0.0715 -9.2021,-0.002 -9.3175,-0.0566 -9.3577,-0.0567 -9.2798,-0.0268 -9.2052,0.009 -9.4135,-0.003 -9.0097,0.0139 -9.0003,0.0532 -9.9382,-0.0324 -9.3544,-0.0356 -8.6635,0.0413 -9.4806,0.0382 -9.4238,0.0527 -8.9264,0.0297 -10.0776,-0.0282 -8.9906,0.0571 -9.5413,0.007 -8.8266,0.0191 -9.7333,0.005 -8.87157,0.063 -9.99112,-0.0789 -9.21876,-0.019 -8.78306,0.0637 -9.66712,0.0234 -9.44771,-0.14235 -9.37564,-0.0599 -9.23614,-0.0705 -9.29262,0.008 -8.91536,0.0361 -9.80063,-0.0317 -9.38944,-0.18567 -9.30683,-0.18508 -8.95426,0.0144 -9.53817,0.002 -8.89241,0.0834 -9.75675,-0.16985 -9.09199,0.0484 -8.94703,0.0523 -9.46514,0.0782 -9.76062,-0.0105 -8.81286,0.0558 -9.99631,-0.12668 -9.00154,0.0134 -9.4236,-0.003 -9.16264,0.0409 -9.41851,0.0113 -9.34776,-0.008 -9.17198,0.0334 -9.30467,0.018 -8.98208,0.0531 -9.54618,0.0231 -9.58246,-0.0206 -9.42565,-0.0751 -9.28352,-0.0734 -9.09626,0.0195 -9.3986,0.0106 -9.37114,-0.063 -9.3646,-0.0439 -8.80709,0.068 -9.81227,-0.0366 -9.13011,0.0174 -9.5577,-0.0935 -8.66417,0.0555 -9.99664,-0.15955 -8.79634,0.0675 -9.61779,0.0193 -9.51375,-0.17781 -9.14772,0.002 -9.29595,-0.0649 -9.26761,0.0236 -9.43001,-0.009 -9.38484,-0.0384 -9.02106,0.0437 -9.42071,0.0305 -9.35141,0.0199 -8.87316,0.0798 -9.98593,-0.10735 -8.9546,0.0336 -9.526,-0.20371 -9.11298,0.0563 -9.07459,0.043 -9.68062,0.0205 -9.33259,0.0108 -9.42237,-0.17559 -9.16443,0.0311 -9.24653,0.0483 -9.36333,0.0352 -9.108,0.0513 -9.65238,-0.0476 -9.05972,0.0571 -8.62141,0.04 -10.1576,0.0268 -9.27048,0.0384 -9.42929,-0.11707 -9.08611,0.0686 -9.31751,0.0611 -9.48015,0.0164 -9.14718,0.0539 -8.90277,0.0854 -9.75352,0.0532 -9.05797,0.0378 -9.73078,0.002 -8.66332,0.0804 -9.90741,0.0291 -8.9533,0.0986 -9.77924,-0.11584 -9.19509,0.0354 -9.44491,-0.0534 -9.14211,0.0521 -8.80454,0.1072 -9.84497,0.0434 -9.55038,-0.0945 -9.14361,0.01 -9.18472,0.0684 -8.83247,0.0744 -9.99097,-0.0287 -9.114905,0.0622 -9.410595,-0.20811 -9.285722,0.0945 -8.917774,0.1089 -9.684486,0.0993 -9.235589,0.11787 -9.205788,0.11548 -9.43975,0.0862 -9.175183,0.0924 c -1.8599,-0.0242 -3.501728,-0.74695 -4.67895,-1.90192 -1.177222,-1.15496 -1.584249,-2.73384 -1.587197,-4.4882 l -0.139131,-9.37792 0.06797,-9.14883 -0.18349,-9.39796 0.566923,-9.12235 -0.02735,-9.3302 -0.03078,-9.27581 -0.05155,-9.32644 0.808558,-9.19764 0.109257,-9.2663 -0.01254,-9.31043 -0.205814,-9.35623 -0.237205,-9.34022 -0.002,-9.12285 -0.05592,-9.28899 -0.07595,-9.28611 -0.08419,-9.27915 -0.05185,-9.30398 -0.212577,-9.35619 -0.03252,-9.14325 0.124691,-9.26813 -0.09649,-9.30502 -0.205799,-9.33383 0.200956,-9.18438 0.07384,-9.25665 -0.119376,-9.3302 -0.17471,-9.29787 -0.169905,-9.31415 0.780978,-9.17906 0.04689,-9.28454 0.04873,-9.25656 0.245438,-9.26791 -0.14431,-9.35331 -0.119612,-9.4361 0.221192,-9.02355 -0.06984,-9.31678 -0.242253,-9.34031 -0.141568,-9.27271 -0.09778,-9.2181 -0.273755,-9.38847 -0.119292,-9.16861 0.120037,-9.236469 0.341377,-9.279069 0.604722,-9.316703 -0.266667,-9.291239 -0.06406,-9.238424 -0.506044,-9.361791 -0.0207,-9.180588 -0.732051,-9.371288 -0.396091,-9.169185 c -0.03675,-1.761534 0.651241,-3.621545 1.790199,-4.773107 1.138959,-1.151563 2.95831,-1.5405 4.710951,-1.5405 z"
       id="path1"
       inkscape:path-effect="#path-effect3;#path-effect4"
       inkscape:original-d="M 12.363264,12.64548 H 1515.9149 V 479.82676 H 13.1482 Z"
       transform="matrix(0.98320715,0,0,0.94604879,5.5765324,11.777845)" />
    <path
       style="fill:#000000;fill-opacity:0;stroke:#000000;stroke-width:12.7;stroke-linecap:round;stroke-linejoin:bevel;stroke-dasharray:none;stroke-opacity:1"
       d="m 346.98887,472.49346 12.01423,24.2647 h 111.34897 l 11.00057,-24.81785"
       id="path2"
       sodipodi:nodetypes="cccc" />
    <path
       style="fill:#000000;fill-opacity:0;stroke:#000000;stroke-width:12.7;stroke-linecap:round;stroke-linejoin:bevel;stroke-dasharray:none;stroke-opacity:1"
       d="m 1034.3894,480.23914 6.1907,16.9853 h 111.349 l 8.0888,-16.08257"
       id="path2-7"
       sodipodi:nodetypes="cccc" />
  </g>
</svg>
