<svg xmlns="http://www.w3.org/2000/svg" version="1.1" xmlns:xlink="http://www.w3.org/1999/xlink" viewBox="-9272.876518380597 -10418.948122693375 64908.309041451845 28327.155040718673"><defs><pattern x="0" y="0" width="96" height="96" patternUnits="userSpaceOnUse" id="grid_inch_pattern"><path d="M 96 0 L 0 0 0 96" fill="none" stroke-width="1.92" stroke="grey"></path></pattern><pattern x="0" y="0" width="1152" height="1152" patternUnits="userSpaceOnUse" id="grid_foot_pattern"><rect width="1152" height="1152" fill="url(#grid_inch_pattern)"></rect><path d="M 1152 0 L 0 0 0 1152" fill="none" stroke-width="23.04" stroke="grey"></path></pattern><pattern x="0" y="0" width="37.79527559055118" height="37.79527559055118" patternUnits="userSpaceOnUse" id="grid_centimeter_pattern"><path d="M 37.79527559055118 0 L 0 0 0 37.79527559055118" fill="none" stroke-width="0.7559055118110236" stroke="grey"></path></pattern><pattern x="0" y="0" width="3779.5275590551178" height="3779.5275590551178" patternUnits="userSpaceOnUse" id="grid_meter_pattern"><rect width="3779.5275590551178" height="3779.5275590551178" fill="url(#grid_centimeter_pattern)"></rect><path d="M 3779.5275590551178 0 L 0 0 0 3779.5275590551178" fill="none" stroke-width="75.59055118110236" stroke="grey"></path></pattern></defs><rect width="64908.309041451845" height="28327.155040718673" id="grid" fill="url(#grid_foot_pattern)" x="-9272.876518380597" y="-10418.948122693375"></rect><g id="bottom"></g><g id="floorplan"><g id="pointmaps"><line x1="23825" y1="15020" x2="23825" y2="-38" stroke-width="400" stroke="black" id="pointmaps_1811" class="wall" data-type="wall"></line><line x1="0" y1="0" x2="12803" y2="0" stroke-width="400" stroke="black" id="pointmaps_1812" class="wall" data-type="wall"></line><line x1="12803" y1="0" x2="12803" y2="-2208" stroke-width="400" stroke="black" id="pointmaps_1813" class="wall" data-type="wall"></line><line x1="0" y1="0" x2="0" y2="-12599" stroke-width="400" stroke="black" id="pointmaps_1814" class="wall" data-type="wall"></line><line x1="0" y1="-12599" x2="12672" y2="-12599" stroke-width="400" stroke="black" id="pointmaps_1815" class="wall" data-type="wall"></line><line x1="12672" y1="-12599" x2="12672" y2="-5788" stroke-width="400" stroke="black" id="pointmaps_1816" class="wall" data-type="wall"></line><line x1="0" y1="15020" x2="23825" y2="15020" stroke-width="400" stroke="black" id="pointmaps_1817" class="wall" data-type="wall"></line><line x1="23825" y1="-38" x2="18624" y2="-38" stroke-width="400" stroke="black" id="pointmaps_1818" class="wall" data-type="wall"></line><line x1="12803" y1="0" x2="14976" y2="0" stroke-width="400" stroke="black" id="pointmaps_1819" class="wall" data-type="wall"></line><line x1="0" y1="0" x2="0" y2="15020" stroke-width="400" stroke="black" id="pointmaps_1820" class="wall" data-type="wall"></line></g><g id="points"><circle r="250" cx="12672" cy="-12599" id="points_1907" class="point"></circle><circle r="250" cx="0" cy="0" id="points_1908" class="point"></circle><circle r="250" cx="14976" cy="0" id="points_1909" class="point"></circle><circle r="250" cx="0" cy="15020" id="points_1910" class="point"></circle><circle r="250" cx="23825" cy="15020" id="points_1911" class="point"></circle><circle r="250" cx="23825" cy="-38" id="points_1912" class="point"></circle><circle r="250" cx="18624" cy="-38" id="points_1913" class="point"></circle><circle r="250" cx="0" cy="-12599" id="points_1914" class="point"></circle><circle r="250" cx="12803" cy="0" id="points_1915" class="point"></circle><circle r="250" cx="12803" cy="-2208" id="points_1916" class="point last_selected"></circle><circle r="250" cx="12672" cy="-5788" id="points_1917" class="point selected"></circle></g></g><g id="top"></g></svg>
